<svg xmlns="http://www.w3.org/2000/svg" xmlns:xlink="http://www.w3.org/1999/xlink" preserveAspectRatio="xMidYMid" width="101" height="102" viewBox="0 0 101 102">
  <defs>
    <style>
      .cls-1 {
        stroke: #f66;
        stroke-linecap: round;
        stroke-linejoin: round;
        stroke-width: 3px;
        fill: none;
        fill-rule: evenodd;
      }
    </style>
  </defs>
  <path d="M44.500,1.469 L90.500,1.469 C92.709,1.469 94.500,3.260 94.500,5.469 L94.500,10.531 C94.500,12.740 92.709,14.531 90.500,14.531 L44.500,14.531 C42.291,14.531 40.500,12.740 40.500,10.531 L40.500,5.469 C40.500,3.260 42.291,1.469 44.500,1.469 Z" class="cls-1"/>
  <path d="M92.516,67.531 C92.490,67.531 92.469,67.510 92.469,67.484 L92.469,34.547 C92.469,34.521 92.490,34.500 92.516,34.500 C92.542,34.500 92.563,34.521 92.563,34.547 L92.563,67.484 C92.563,67.510 92.542,67.531 92.516,67.531 ZM91.177,24.272 C92.831,25.618 92.485,28.542 92.485,28.542 L91.177,24.272 ZM86.516,8.563 C86.490,8.563 86.469,8.542 86.469,8.516 C86.469,8.490 86.490,8.469 86.516,8.469 L88.484,8.469 C88.510,8.469 88.531,8.490 88.531,8.516 C88.531,8.542 88.510,8.563 88.484,8.563 L86.516,8.563 ZM65.578,8.563 C65.552,8.563 65.531,8.542 65.531,8.516 C65.531,8.490 65.552,8.469 65.578,8.469 L80.484,8.469 C80.510,8.469 80.531,8.490 80.531,8.516 C80.531,8.542 80.510,8.563 80.484,8.563 L65.578,8.563 ZM16.469,87.484 L16.469,79.578 C16.469,79.552 16.490,79.531 16.516,79.531 C16.542,79.531 16.562,79.552 16.562,79.578 L16.562,87.484 C16.562,87.510 16.542,87.531 16.516,87.531 C16.490,87.531 16.469,87.510 16.469,87.484 ZM16.453,73.531 L16.453,71.558 C16.453,71.532 16.474,71.511 16.500,71.511 C16.526,71.511 16.547,71.532 16.547,71.558 L16.547,73.531 C16.547,73.557 16.526,73.578 16.500,73.578 C16.474,73.578 16.453,73.557 16.453,73.531 Z" class="cls-1"/>
  <path d="M36.754,36.466 L74.488,36.466 C76.697,36.466 78.488,38.257 78.488,40.466 L78.488,74.495 C78.488,76.704 76.697,78.495 74.488,78.495 L36.754,78.495 " class="cls-1"/>
  <path d="M89.519,14.386 C92.959,14.386 99.519,22.680 99.519,27.099 L99.519,92.490 C99.519,96.908 95.937,100.490 91.519,100.490 L43.494,100.490 C39.076,100.490 35.494,96.908 35.494,92.490 L35.494,27.099 C35.494,22.680 42.053,14.386 45.494,14.386 " class="cls-1"/>
  <path d="M68.453,60.500 C68.326,60.500 68.204,60.478 68.081,60.463 C66.781,65.097 62.535,68.500 57.484,68.500 C52.325,68.500 48.007,64.948 46.810,60.160 C46.401,60.370 45.944,60.500 45.453,60.500 C43.805,60.500 42.469,59.164 42.469,57.516 C42.469,55.867 43.805,54.531 45.453,54.531 C45.939,54.531 46.390,54.658 46.796,54.864 C47.973,50.048 52.305,46.469 57.484,46.469 C62.557,46.469 66.817,49.901 68.097,54.567 C68.215,54.553 68.331,54.531 68.453,54.531 C70.101,54.531 71.437,55.867 71.437,57.516 C71.437,59.164 70.101,60.500 68.453,60.500 Z" class="cls-1"/>
  <path d="M62.500,57.578 C62.474,57.578 62.453,57.557 62.453,57.531 L62.453,55.558 C62.453,55.532 62.474,55.511 62.500,55.511 C62.526,55.511 62.547,55.532 62.547,55.558 L62.547,57.531 C62.547,57.557 62.526,57.578 62.500,57.578 ZM52.453,57.531 L52.453,55.558 C52.453,55.532 52.474,55.511 52.500,55.511 C52.526,55.511 52.547,55.532 52.547,55.558 L52.547,57.531 C52.547,57.557 52.526,57.578 52.500,57.578 C52.474,57.578 52.453,57.557 52.453,57.531 Z" class="cls-1"/>
  <path d="M54.156,47.156 C54.156,47.156 54.500,51.156 56.937,51.156 " class="cls-1"/>
  <path d="M54.500,62.031 C54.500,62.031 55.344,63.437 57.562,63.437 C59.781,63.437 60.500,62.031 60.500,62.031 " class="cls-1"/>
  <path d="M22.488,69.466 C22.488,67.257 20.697,65.466 18.488,65.466 L10.501,65.466 C8.292,65.466 6.501,67.257 6.501,69.466 C6.501,69.466 6.500,88.089 6.500,92.516 C6.500,96.943 10.089,100.531 14.516,100.531 C18.942,100.531 22.531,96.943 22.531,92.516 C22.531,88.089 22.488,69.466 22.488,69.466 Z" class="cls-1"/>
  <path d="M11.500,64.625 C11.500,64.625 11.500,61.188 11.500,56.594 C11.500,52.000 9.128,51.493 7.008,49.988 C3.694,47.636 1.531,43.767 1.531,39.393 C1.531,32.222 4.646,17.409 14.516,17.409 C24.385,17.409 27.500,32.222 27.500,39.393 C27.500,43.776 25.328,47.652 22.002,50.003 C19.886,51.499 17.500,52.031 17.500,56.719 C17.500,61.406 17.500,64.844 17.500,64.844 " class="cls-1"/>
</svg>
